# xmcd
#
# Track frame offsets:
#	213
#	23976
#	39624
#	57202
#	69829
#	84470
#	101201
#	119713
#	136677
#	154413
#	173066
#	199607
#
# Disc length: 2954 seconds
#
# Revision: 1
# Processed by: cddbd v1.4PL0 Copyright (c) Steve Scherf et al.
# Submitted via: audiograbber 1.81.01
#
DISCID=a10b880c
DTITLE=The Shadows - The Dark Side Of The Shadows
DYEAR=1995
DGENRE=Blues
TTITLE0=Dark Side
TTITLE1=Run For Cover
TTITLE2=Take It Real Easy
TTITLE3=Got Love If You Want It
TTITLE4=High And Lonesome
TTITLE5=Bachelor's Blues
TTITLE6=Grady's Song
TTITLE7=Honeysucle Breeze
TTITLE8=C C Rider
TTITLE9=Sweet Rider
TTITLE10=Restless Nights
TTITLE11=Can't Stand Me Baby
EXTD=
EXTT0=
EXTT1=
EXTT2=
EXTT3=
EXTT4=
EXTT5=
EXTT6=
EXTT7=
EXTT8=
EXTT9=
EXTT10=
EXTT11=
PLAYORDER=
